<svg width="117" height="116" viewBox="0 0 117 116" fill="none" xmlns="http://www.w3.org/2000/svg">
<path d="M58.2607 116C90.4372 116 116.521 90.0325 116.521 58C116.521 25.9675 90.4372 0 58.2607 0C26.0842 0 0 25.9675 0 58C0 90.0325 26.0842 116 58.2607 116Z" fill="url(#paint0_linear_214_0)"/>
<path d="M81.9682 83.1288H94.5669L85.6723 32.9324H72.8481H72.8584H68.2283H67.6132L51.5052 56.9863L44.0116 32.9324H30.8491L21.9546 83.1288H34.5601L39.6036 54.8228L44.367 71.6955H53.5418L64.326 54.8228L59.2824 83.1288H59.3371H71.9426H71.9597L73.9962 71.641H79.8872L81.9682 83.1288ZM75.1444 65.1403L76.9076 55.2446L78.7015 65.1403H75.1444Z" fill="white"/>
<defs>
<linearGradient id="paint0_linear_214_0" x1="117" y1="1.80494e-06" x2="-2.36875e-05" y2="116" gradientUnits="userSpaceOnUse">
<stop stop-color="#7D7FFF"/>
<stop offset="1" stop-color="#FF2F97"/>
</linearGradient>
</defs>
</svg>
